# xmcd CD database file
#
# Track frame offsets:
#	150
#	25411
#	44381
#	65157
#	84744
#	107713
#	125507
#	149957
#	171636
#	190923
#	206963
#	225622
#	244839
#	264363
#	283132
#
# Disc length: 4051 seconds
#
# Revision: 0
# Processed by: cddbd v1.5.2PL0 Copyright (c) Steve Scherf et al.
# Submitted via: CDex 1.51
#
DISCID=f60fd10f
DTITLE=Various Artist - D's Merengue 3
DYEAR=2010
DGENRE=Merengue
TTITLE0=La Banda Gorda -Yo Traigo Fuego
TTITLE1=La Banda Gorda - Dame Agua
TTITLE2=La Banda Gorda - Candela Pura
TTITLE3=La Banda Gorda- La Cura
TTITLE4=Fernando Villalona - Cama Y Mesa
TTITLE5=Fernando Villalona - Cuando Pise Tierra Dominicana
TTITLE6=Fernando Villalona - Mi Vida Eres Tu
TTITLE7=Fernando Villalona - Se Que Te Perdi
TTITLE8=Juan Luis Guerra - Me Enamoro De Ella
TTITLE9=La Makina - El Venao
TTITLE10=La Makina - Mi Reina
TTITLE11=Los Hermano Rosario - La Duena del Swing
TTITLE12=Los Hermano Rosario - Mil Horas
TTITLE13=Los Hermano Rosario - Rompe Cintura
TTITLE14=Los Hermano Rosario - Un Beso Y Una Flor
EXTD=YEAR: 2010
EXTT0=
EXTT1=
EXTT2=
EXTT3=
EXTT4=
EXTT5=
EXTT6=
EXTT7=
EXTT8=
EXTT9=
EXTT10=
EXTT11=
EXTT12=
EXTT13=
EXTT14=
PLAYORDER=
